<svg width="1440" height="900" viewBox="0 0 1440 900" fill="none" xmlns="http://www.w3.org/2000/svg">
  <rect width="1440" height="900" fill="#F8FAF6"/>
  <rect x="0" y="0" width="290" height="900" fill="#FFFFFF"/>
  <text x="42" y="66" fill="#0B1A10" font-family="Inter, Arial" font-size="30" font-weight="700">Teffort-AI</text>
  <g fill="#334155" font-family="Inter, Arial" font-size="24">
    <text x="42" y="142">Overview</text>
    <text x="42" y="192">Assessment</text>
    <text x="42" y="242">Prototypes</text>
    <text x="42" y="292">Workflows</text>
    <text x="42" y="342">Integrations</text>
    <text x="42" y="392">Settings</text>
  </g>
  <text x="340" y="82" fill="#0B1A10" font-family="Inter, Arial" font-size="44" font-weight="700">Overview Dashboard</text>
  <rect x="340" y="130" width="328" height="170" rx="22" fill="#FFFFFF" stroke="#D4E3CD"/>
  <rect x="690" y="130" width="328" height="170" rx="22" fill="#FFFFFF" stroke="#D4E3CD"/>
  <rect x="1040" y="130" width="328" height="170" rx="22" fill="#FFFFFF" stroke="#D4E3CD"/>
  <text x="368" y="184" fill="#64748B" font-family="Inter, Arial" font-size="20">Active Workflows</text>
  <text x="368" y="246" fill="#0B1A10" font-family="Inter, Arial" font-size="52" font-weight="700">08</text>
  <text x="718" y="184" fill="#64748B" font-family="Inter, Arial" font-size="20">AI Calls (30d)</text>
  <text x="718" y="246" fill="#0B1A10" font-family="Inter, Arial" font-size="52" font-weight="700">12,420</text>
  <text x="1068" y="184" fill="#64748B" font-family="Inter, Arial" font-size="20">Estimated Savings</text>
  <text x="1068" y="246" fill="#0B1A10" font-family="Inter, Arial" font-size="52" font-weight="700">$24,800</text>
  <rect x="340" y="330" width="1028" height="420" rx="22" fill="#FFFFFF" stroke="#D4E3CD"/>
  <text x="372" y="386" fill="#0B1A10" font-family="Inter, Arial" font-size="34" font-weight="700">Recent Workflows</text>
  <g fill="#334155" font-family="Inter, Arial" font-size="24">
    <text x="372" y="446">• Lead qualification + CRM sync</text>
    <text x="372" y="496">• Invoice extraction + ERP post</text>
    <text x="372" y="546">• Customer support triage routing</text>
    <text x="372" y="596">• Proposal drafting + approval routing</text>
  </g>
</svg>
