<svg width="1440" height="900" viewBox="0 0 1440 900" fill="none" xmlns="http://www.w3.org/2000/svg">
  <rect width="1440" height="900" fill="#F8FAF6"/>
  <rect x="0" y="0" width="1440" height="84" fill="#FFFFFF"/>
  <text x="72" y="54" fill="#0B1A10" font-family="Inter, Arial" font-size="28" font-weight="700">Teffort-AI Integration Suite</text>
  <text x="84" y="182" fill="#64748B" font-family="Inter, Arial" font-size="18" letter-spacing="2">AI INTEGRATION PLATFORM</text>
  <text x="84" y="270" fill="#0B1A10" font-family="Inter, Arial" font-size="72" font-weight="700">Next Generation</text>
  <text x="84" y="350" fill="#0B1A10" font-family="Inter, Arial" font-size="72" font-weight="700">AI Workflow Suite.</text>
  <text x="84" y="410" fill="#475569" font-family="Inter, Arial" font-size="28">Discover, prototype, and deploy automation in days — not months.</text>
  <rect x="84" y="470" rx="14" ry="14" width="220" height="56" fill="#A5F06B"/>
  <text x="140" y="505" fill="#0B1A10" font-family="Inter, Arial" font-size="24" font-weight="600">Open Dashboard</text>
  <rect x="324" y="470" rx="14" ry="14" width="230" height="56" fill="#FFFFFF" stroke="#D4E3CD"/>
  <text x="368" y="505" fill="#0B1A10" font-family="Inter, Arial" font-size="24" font-weight="600">Run Assessment</text>
  <rect x="890" y="180" width="420" height="520" rx="36" fill="url(#grad)" stroke="#D4E3CD" stroke-width="2"/>
  <rect x="942" y="250" width="316" height="92" rx="18" fill="#FFFFFF" fill-opacity="0.88"/>
  <text x="976" y="308" fill="#0B1A10" font-family="Inter, Arial" font-size="30" font-weight="700">AI Opportunity Map</text>
  <rect x="942" y="365" width="316" height="92" rx="18" fill="#FFFFFF" fill-opacity="0.88"/>
  <text x="976" y="423" fill="#0B1A10" font-family="Inter, Arial" font-size="30" font-weight="700">Prototype Builder</text>
  <rect x="942" y="480" width="316" height="92" rx="18" fill="#FFFFFF" fill-opacity="0.88"/>
  <text x="976" y="538" fill="#0B1A10" font-family="Inter, Arial" font-size="30" font-weight="700">Workflow Deploy</text>
  <defs>
    <linearGradient id="grad" x1="890" y1="180" x2="1310" y2="700" gradientUnits="userSpaceOnUse">
      <stop stop-color="#D6F7B4"/>
      <stop offset="1" stop-color="#FFFFFF"/>
    </linearGradient>
  </defs>
</svg>
